{"accessors" : [{"bufferView" : 0, "byteOffset" : 0, "componentType" : 5123, "count" : 1008, "type" : "SCALAR", "max" : [1007], "min" : [0]}, {"bufferView" : 1, "byteOffset" : 0, "componentType" : 5126, "count" : 1008, "type" : "VEC3", "max" : [-173.58921813964844, 25.970571517944336, 33.73814392089844], "min" : [-251.9072723388672, -25.970571517944336, -39.185672760009766], "name" : "POSITION"}, {"bufferView" : 1, "byteOffset" : 12, "componentType" : 5126, "count" : 1008, "type" : "VEC3", "max" : [0.9804117679595947, 0.9978113770484924, 0.9638351202011108], "min" : [-0.9804095029830933, -0.9978113770484924, -0.9264929294586182], "name" : "NORMAL"}], "asset" : {"generator" : "Aspose.3D 23.2", "version" : "2.0"}, "buffers" : [{"uri" : "data:application/octet-stream;base64,", "byteLength" : 26216}], "bufferViews" : [{"buffer" : 0, "byteOffset" : 0, "byteLength" : 2016, "target" : 34963}, {"buffer" : 0, "byteOffset" : 2020, "byteLength" : 24192, "byteStride" : 24, "target" : 34962}], "meshes" : [{"primitives" : [{"attributes" : {"POSITION" : 1, "NORMAL" : 2}, "indices" : 0, "mode" : 4}], "name" : ""}], "nodes" : [{"mesh" : 0, "name" : ""}], "scene" : 0, "scenes" : [{"nodes" : [0]}]}